<svg width="385" height="335" viewBox="0 0 385 335" fill="none" xmlns="http://www.w3.org/2000/svg">
<path d="M13.6765 93.4944L11.398 91.9354L11.1582 91.8155C5.08223 87.5783 1.52454 80.6229 0.485227 70.9492V71.5488L0.00551352 65.7926V65.6727C-0.154381 54.4801 3.16349 43.0876 9.95901 31.4952C16.7545 19.663 25.069 11.0287 34.9026 5.59232L35.0224 5.47243C45.7354 -0.443668 55.0093 -1.56299 62.8441 2.11459L63.8035 2.5943L69.08 5.59232C83.3906 13.8269 94.6632 23.5805 102.898 34.8531C129.041 17.2647 158.821 8.47046 192.239 8.47046C225.737 8.47046 255.557 17.2647 281.7 34.8531C289.854 23.5805 301.127 13.8269 315.518 5.59232H315.637C317.316 4.55301 319.075 3.55367 320.914 2.5943L321.873 2.11459C329.628 -1.56299 338.902 -0.443668 349.695 5.47243L349.815 5.59232C359.569 11.0287 367.883 19.663 374.758 31.4952H374.639C381.434 43.0876 384.752 54.4801 384.592 65.6727V65.7926L384.352 71.0691C383.153 80.6628 379.515 87.5783 373.439 91.8155L373.319 91.9354L371.041 93.4944L370.441 93.8541L367.803 95.2933L367.563 95.4131C359.089 100.37 350.694 104.127 342.38 106.686C351.014 126.593 355.331 148.218 355.331 171.563V176.36V176.6C354.612 201.943 348.776 225.128 337.823 246.154C330.228 260.784 320.154 274.335 307.603 286.807L301.847 292.203L292.013 300.718C263.392 323.343 230.134 334.655 192.239 334.655C154.344 334.655 121.126 323.343 92.5845 300.718H92.4646L82.6311 292.203L76.9948 286.807C46.295 256.267 30.3855 219.611 29.2663 176.839L29.1464 171.563C29.1464 148.138 33.5034 126.473 42.2177 106.566C33.9032 104.007 25.5487 100.33 17.1543 95.533L16.7944 95.2933L14.1562 93.8541L13.6765 93.4944Z" fill="#6D4526"/>
<path d="M81.5517 65.194C76.2752 59.9974 70.0393 55.2806 62.8441 51.0434L58.6469 48.7648C54.1698 46.9261 48.7734 47.6856 42.4575 51.0434C35.5821 55.0407 29.7459 61.2366 24.9491 69.6311C21.8312 74.9076 19.7525 80.1442 18.7132 85.3407L16.9144 84.1415C12.997 81.1835 10.6785 76.4266 9.95898 69.8709C10.7585 61.9561 13.5166 53.9614 18.2335 45.8867C24.0696 35.7334 31.1849 28.2584 39.5794 23.4616C47.1744 19.3043 53.6902 18.3449 59.1266 20.5834L64.2832 23.4616C77.9541 31.3763 88.5871 40.7701 96.1821 51.643C91.9449 55.0807 87.7877 58.8383 83.7104 62.9156L81.5517 65.194ZM288.415 51.7629C295.93 40.89 306.563 31.4563 320.314 23.4616L325.471 20.5834C330.907 18.3449 337.423 19.3043 345.018 23.4616C353.413 28.2584 360.528 35.7334 366.364 45.8867C371.081 53.9614 373.879 61.9561 374.758 69.8709C373.959 76.4266 371.601 81.1835 367.683 84.1415L365.884 85.3407C364.845 80.1442 362.766 74.9076 359.648 69.6311C354.852 61.2366 349.015 55.0407 342.14 51.0434C335.824 47.6856 330.428 46.9261 325.951 48.7648L321.753 51.0434C314.478 55.2806 308.242 60.0375 303.046 65.314L300.767 62.9156C296.77 58.9182 292.653 55.2006 288.415 51.7629Z" fill="#8E5A32"/>
<path d="M288.415 51.7628L284.338 48.525C291.933 34.854 303.925 23.3016 320.314 13.8678L325.471 10.9897C330.907 8.75115 337.423 9.71054 345.018 13.8678C353.413 18.6646 360.528 26.1397 366.364 36.293C372.2 46.2864 375.078 56.0799 374.998 65.6736L374.759 69.8708C373.879 61.956 371.081 53.9613 366.364 45.8866C360.528 35.7333 353.413 28.2583 345.018 23.4615C337.423 19.3042 330.907 18.3448 325.471 20.5833L320.314 23.4615C306.564 31.4562 295.931 40.89 288.415 51.7628ZM96.1822 51.6429C88.5872 40.7701 77.9543 31.3763 64.2833 23.4615L59.1267 20.5833C53.6903 18.3448 47.1745 19.3042 39.5795 23.4615C31.185 28.2583 24.0698 35.7333 18.2336 45.8866C13.5167 53.9613 10.7586 61.956 9.9591 69.8708L9.59928 65.6736C9.51933 56.0799 12.3974 46.2864 18.2336 36.293C24.0698 26.1397 31.185 18.6646 39.5795 13.8678C47.1745 9.71054 53.6903 8.75115 59.1267 10.9897L64.2833 13.8678C80.5925 23.3016 92.5846 34.8139 100.26 48.4049L96.1822 51.6429Z" fill="#B67340"/>
<path d="M18.7136 85.3399C19.7529 80.1434 21.8316 74.9068 24.9495 69.6303C29.7464 61.2359 35.5825 55.0399 42.458 51.0426C48.7738 47.6848 54.1702 46.9253 58.6473 48.764L62.8445 51.0426C70.0398 55.2798 76.2756 59.9966 81.5522 65.1932C71.0791 76.066 62.5247 87.6984 55.8891 100.09C44.7764 98.0916 33.4239 93.7744 21.8315 87.1388L18.7136 85.3399ZM303.046 65.3132C308.243 60.0367 314.479 55.2798 321.754 51.0426L325.951 48.764C330.428 46.9253 335.825 47.6848 342.14 51.0426C349.016 55.0399 354.852 61.2359 359.649 69.6303C362.767 74.9068 364.845 80.1434 365.885 85.3399L362.767 87.1388C351.174 93.8543 339.782 98.1715 328.589 100.09C321.954 87.6984 313.439 76.1061 303.046 65.3132Z" fill="#774B2A"/>
<path d="M303.046 65.3143C313.439 76.1072 321.953 87.6996 328.589 100.091C340.021 121.597 345.738 145.421 345.738 171.564V176.361C344.618 136.068 329.628 101.45 300.767 72.5096C276.623 48.4454 248.442 34.0549 216.223 29.338L192.239 27.6591L168.255 29.338C136.036 34.0549 107.854 48.4454 83.7103 72.5096C54.8494 101.45 39.8992 136.068 38.8599 176.361L38.74 171.564C38.74 145.421 44.4562 121.597 55.8887 100.091C62.5243 87.6996 71.0786 76.0671 81.5517 65.1943L83.7103 62.9159C87.7877 58.8386 91.9449 55.081 96.1821 51.6433L100.259 48.4053C126.722 28.1787 157.382 18.0654 192.239 18.0654C227.176 18.0654 257.876 28.2188 284.338 48.5254L288.415 51.7632C292.653 55.2009 296.77 58.9185 300.767 62.9159L303.046 65.3143Z" fill="#BD7841"/>
<path d="M234.211 74.3085C234.211 65.9939 230.094 58.9185 221.859 53.0824C213.705 47.2462 203.831 44.3282 192.239 44.3282C180.647 44.3282 170.733 47.2462 162.499 53.0824C154.344 58.9185 150.267 65.9939 150.267 74.3085L150.387 76.3471C150.946 93.2959 154.984 107.886 162.499 120.118C170.733 133.549 180.647 140.265 192.239 140.265C203.831 140.265 213.705 133.549 221.859 120.118C229.454 107.886 233.572 93.2959 234.211 76.3471V74.3085ZM38.8601 176.361C39.8994 136.068 54.8496 101.451 83.7106 72.5096C107.855 48.4455 136.036 34.055 168.255 29.3381L192.239 27.6592L216.223 29.3381C248.442 34.055 276.623 48.4455 300.768 72.5096C329.628 101.451 344.619 136.068 345.738 176.361C345.098 200.185 339.622 221.971 329.309 241.718C322.113 255.469 312.6 268.221 300.768 279.973L295.371 285.129L286.017 293.164C260.114 271.179 228.855 260.186 192.239 260.186C155.703 260.186 124.444 271.179 98.4608 293.164L89.107 285.129L83.7106 279.973C54.8496 251.192 39.8994 216.655 38.8601 176.361Z" fill="#A16639"/>
<path d="M234.211 74.3093V76.3479C233.571 93.2968 229.454 107.887 221.859 120.119C213.704 133.55 203.831 140.266 192.239 140.266C180.646 140.266 170.733 133.55 162.498 120.119C154.983 107.887 150.946 93.2968 150.386 76.3479L150.266 74.3093C150.266 65.9948 154.344 58.9194 162.498 53.0832C170.733 47.2471 180.646 44.3291 192.239 44.3291C203.831 44.3291 213.704 47.2471 221.859 53.0832C230.094 58.9194 234.211 65.9948 234.211 74.3093Z" fill="#AA6C3C"/>
<path d="M98.4609 293.165C124.444 271.179 155.703 260.187 192.239 260.187C228.855 260.187 260.114 271.179 286.017 293.165C259.155 314.431 227.896 325.064 192.239 325.064C156.583 325.064 125.323 314.431 98.4609 293.165Z" fill="#955E34"/>
<path d="M161.419 179.239L160.939 173.603V171.444C161.419 167.607 164.457 164.329 170.053 161.611C176.209 158.653 183.604 157.174 192.239 157.174C200.873 157.174 208.268 158.653 214.424 161.611C219.94 164.329 222.978 167.607 223.538 171.444V173.603L223.058 179.239C221.939 176.201 219.061 173.523 214.424 171.205C208.268 168.246 200.873 166.768 192.239 166.768C183.604 166.768 176.209 168.246 170.053 171.205C165.416 173.443 162.538 176.121 161.419 179.239Z" fill="#545454"/>
<path d="M161.419 179.239C162.539 176.121 165.417 173.443 170.054 171.205C176.21 168.247 183.605 166.768 192.239 166.768C200.873 166.768 208.269 168.247 214.425 171.205C219.061 173.523 221.939 176.201 223.059 179.239C222.019 185.555 219.141 191.071 214.425 195.788C210.987 199.226 207.149 201.705 202.912 203.224C196.117 206.022 189.001 206.022 181.566 203.224C177.329 201.705 173.491 199.226 170.054 195.788C165.337 191.071 162.459 185.555 161.419 179.239Z" fill="#464646"/>
<path d="M202.912 203.224L204.95 205.622C206.469 207.141 208.108 208.34 209.867 209.22C212.106 210.259 214.544 210.779 217.182 210.779C221.979 210.779 226.096 209.06 229.534 205.622L232.532 201.665L233.731 200.585L235.41 200.705L246.683 206.582L247.762 207.781L247.642 209.34L244.044 214.856L241.526 217.614C234.731 224.33 226.616 227.688 217.182 227.688C207.748 227.688 199.674 224.33 192.958 217.614L192.239 216.895L191.519 217.614C184.724 224.33 176.609 227.688 167.175 227.688C157.661 227.688 149.587 224.33 142.951 217.614L140.433 214.856C138.994 213.097 137.795 211.338 136.835 209.58C136.515 209.02 136.475 208.5 136.715 208.021C136.795 207.461 137.115 207.021 137.675 206.701L148.707 200.585L150.266 200.346L151.585 201.425C152.465 202.944 153.544 204.343 154.823 205.622C158.261 209.06 162.378 210.779 167.175 210.779C169.813 210.779 172.292 210.259 174.61 209.22L179.527 205.622L181.566 203.224C189.001 206.022 196.116 206.022 202.912 203.224Z" fill="#383838"/>
<path d="M295.85 141.945C295.85 135.789 293.692 130.552 289.374 126.235C284.977 121.918 279.701 119.759 273.545 119.759C267.469 119.759 262.232 121.918 257.835 126.235C253.518 130.552 251.36 135.789 251.36 141.945C251.36 148.1 253.518 153.257 257.835 157.414C262.232 161.891 267.469 164.13 273.545 164.13C279.701 164.13 284.977 161.891 289.374 157.414C293.692 153.257 295.85 148.1 295.85 141.945ZM309.401 133.67C312.439 145.183 311.68 155.855 307.123 165.689C302.486 175.762 295.371 182.078 285.777 184.637C276.263 187.115 266.989 185.156 257.955 178.76C249.081 172.604 243.085 163.77 239.967 152.258V152.138C237.409 142.544 238.608 133.47 243.565 124.916C248.601 116.282 255.877 110.725 265.39 108.247C274.984 105.688 284.098 106.888 292.732 111.844C301.207 116.721 306.763 123.956 309.401 133.55V133.67ZM88.6268 141.945C88.6268 148.1 90.7854 153.257 95.1026 157.414C99.4997 161.891 104.776 164.13 110.932 164.13C117.008 164.13 122.245 161.891 126.642 157.414C130.959 153.257 133.117 148.1 133.117 141.945C133.117 135.789 130.959 130.552 126.642 126.235C122.245 121.918 117.008 119.759 110.932 119.759C104.776 119.759 99.4997 121.918 95.1026 126.235C90.7854 130.552 88.6268 135.789 88.6268 141.945ZM75.0757 133.67V133.55C77.714 123.956 83.2703 116.721 91.7447 111.844C100.379 106.888 109.493 105.688 119.087 108.247C128.6 110.725 135.876 116.282 140.912 124.916C145.869 133.47 147.068 142.544 144.51 152.138V152.258C141.392 163.77 135.396 172.604 126.522 178.76C117.488 185.156 108.214 187.115 98.7002 184.637C89.1065 182.078 81.9911 175.762 77.3542 165.689C72.7972 155.855 72.0377 145.183 75.0757 133.67Z" fill="#8E5A32"/>
<path d="M295.851 141.943C295.851 148.099 293.692 153.256 289.375 157.413C284.978 161.89 279.701 164.129 273.545 164.129C267.469 164.129 262.233 161.89 257.836 157.413C253.518 153.256 251.36 148.099 251.36 141.943C251.36 135.787 253.518 130.551 257.836 126.234C262.233 121.916 267.469 119.758 273.545 119.758C279.701 119.758 284.978 121.916 289.375 126.234C293.692 130.551 295.851 135.787 295.851 141.943ZM285.058 142.303C285.058 138.386 283.699 135.108 280.98 132.47C278.262 129.751 274.984 128.392 271.147 128.392C267.309 128.392 263.992 129.751 261.193 132.47C258.475 135.108 257.116 138.386 257.116 142.303C257.116 146.14 258.475 149.378 261.193 152.017C263.992 154.815 267.309 156.214 271.147 156.214C274.984 156.214 278.262 154.815 280.98 152.017C283.699 149.378 285.058 146.14 285.058 142.303ZM88.6272 141.943C88.6272 135.787 90.7858 130.551 95.103 126.234C99.5001 121.916 104.777 119.758 110.932 119.758C117.008 119.758 122.245 121.916 126.642 126.234C130.959 130.551 133.118 135.787 133.118 141.943C133.118 148.099 130.959 153.256 126.642 157.413C122.245 161.89 117.008 164.129 110.932 164.129C104.777 164.129 99.5001 161.89 95.103 157.413C90.7858 153.256 88.6272 148.099 88.6272 141.943ZM99.4201 142.303C99.4201 146.14 100.779 149.378 103.497 152.017C106.216 154.815 109.493 156.214 113.331 156.214C117.168 156.214 120.486 154.815 123.284 152.017C126.003 149.378 127.362 146.14 127.362 142.303C127.362 138.386 126.003 135.108 123.284 132.47C120.486 129.751 117.168 128.392 113.331 128.392C109.493 128.392 106.216 129.751 103.497 132.47C100.779 135.108 99.4201 138.386 99.4201 142.303Z" fill="white"/>
<path d="M99.4202 142.303C99.4202 138.386 100.779 135.108 103.498 132.47C106.216 129.752 109.493 128.393 113.331 128.393C117.168 128.393 120.486 129.752 123.284 132.47C126.003 135.108 127.362 138.386 127.362 142.303C127.362 146.141 126.003 149.379 123.284 152.017C120.486 154.815 117.168 156.214 113.331 156.214C109.493 156.214 106.216 154.815 103.498 152.017C100.779 149.379 99.4202 146.141 99.4202 142.303ZM285.058 142.303C285.058 146.141 283.699 149.379 280.981 152.017C278.262 154.815 274.984 156.214 271.147 156.214C267.31 156.214 263.992 154.815 261.194 152.017C258.475 149.379 257.116 146.141 257.116 142.303C257.116 138.386 258.475 135.108 261.194 132.47C263.992 129.752 267.31 128.393 271.147 128.393C274.984 128.393 278.262 129.752 280.981 132.47C283.699 135.108 285.058 138.386 285.058 142.303Z" fill="#5B5B5B"/>
</svg>
