<svg width="327" height="395" viewBox="0 0 327 395" fill="none" xmlns="http://www.w3.org/2000/svg">
<path d="M19.907 96.1955C19.1875 67.4944 24.2641 38.8333 35.1369 10.2122L35.2566 10.0923C36.6157 6.41475 39.0543 3.69648 42.5719 1.93764L42.692 1.81775C46.4495 -0.100986 50.2069 -0.500723 53.9644 0.61854H53.8444C57.6819 1.57791 60.72 3.8164 62.9585 7.33408V7.21419L108.768 77.2481C125.637 71.332 143.745 68.3739 163.092 68.3739C182.44 68.3739 200.588 71.332 217.536 77.2481L263.226 7.21419V7.33408C265.465 3.8164 268.543 1.57791 272.46 0.61854H272.341C276.018 -0.500723 279.735 -0.100986 283.493 1.81775L283.733 1.93764C287.171 3.69648 289.609 6.41475 291.048 10.0923V10.2122C301.921 38.8333 306.998 67.4944 306.278 96.1955C305.878 111.625 303.88 127.055 300.282 142.485C317.551 168.468 326.185 198.128 326.185 231.466V236.263V236.623C325.385 262.446 319.31 286.11 307.957 307.616C304.599 313.852 300.802 319.928 296.565 325.844L295.845 326.683L295.725 327.043L295.365 327.523C290.249 334.159 284.612 340.594 278.456 346.83L266.704 357.623L266.584 357.743L255.911 365.898C228.889 385.005 197.95 394.559 163.092 394.559C128.156 394.559 97.216 385.045 70.2738 366.018V365.898C66.6762 363.34 63.1982 360.701 59.8404 357.983L47.7286 346.83C41.4128 340.514 35.8164 334.039 30.9397 327.403C25.4233 320.128 20.7464 312.613 16.909 304.858L16.3094 303.539L2.99802 263.485L2.51846 260.727V260.487L2.39842 260.008L1.91885 257.489V257.129L1.79881 256.65V256.17L1.67878 255.69L1.31925 252.093L1.07917 250.893V250.174L0.959426 249.334V249.215L0.839388 248.615V248.375V248.255L0.719643 247.296L0.599605 245.977L0.479567 244.658L0.120038 236.743L0 231.466C0 198.208 8.67422 168.588 26.0228 142.605C22.3452 127.095 20.3067 111.625 19.907 96.1955Z" fill="#747070"/>
<path d="M29.5007 95.9549C30.1403 71.7309 35.017 47.467 44.131 23.163C44.6907 21.7239 45.6499 20.6446 47.009 19.925L51.3263 19.4453C52.8453 19.845 54.0445 20.7246 54.9239 22.0837L102.772 95.4754L100.014 99.9124L70.8735 67.6536C70.2339 67.014 69.3943 66.8142 68.355 67.054C67.3157 67.2139 66.3163 67.7335 65.357 68.6129C64.3976 69.4923 63.7579 70.5318 63.4381 71.731C51.9257 106.988 50.1269 138.087 58.0417 165.03L54.9239 169.946C54.1244 171.225 52.965 172.105 51.446 172.584L47.009 172.105C45.6499 171.385 44.6907 170.306 44.131 168.867C35.017 144.563 30.1403 120.259 29.5007 95.9549ZM223.413 95.4754L271.261 22.0837C272.141 20.7246 273.34 19.845 274.859 19.4453L279.176 19.925C280.535 20.6446 281.494 21.7239 282.054 23.163C291.168 47.467 296.045 71.7309 296.684 95.9549C296.045 120.259 291.168 144.563 282.054 168.867C281.494 170.306 280.535 171.385 279.176 172.105L274.739 172.584C273.22 172.105 272.061 171.225 271.261 169.946L268.143 165.03C276.058 138.087 274.259 106.988 262.747 71.731C262.427 70.5318 261.787 69.4923 260.828 68.6129C259.869 67.7335 258.869 67.2139 257.83 67.054C256.791 66.8142 255.951 67.014 255.312 67.6536L226.171 99.9124L223.413 95.4754Z" fill="#958F8F"/>
<path d="M223.413 95.4753L222.333 93.7962C221.694 92.8369 221.374 91.7576 221.374 90.5584C221.374 89.3592 221.694 88.28 222.333 87.3206L271.261 12.4899C272.141 11.1308 273.34 10.2513 274.859 9.85156L279.176 10.3313C280.535 11.0508 281.494 12.1302 282.054 13.5692C292.447 40.9912 297.324 68.453 296.684 95.9549C296.045 71.7308 291.168 47.4669 282.054 23.1629C281.494 21.7239 280.535 20.6445 279.176 19.925L274.859 19.4452C273.34 19.845 272.141 20.7245 271.261 22.0836L223.413 95.4753ZM102.772 95.4753L54.9239 22.0836C54.0444 20.7245 52.8452 19.845 51.3262 19.4452L47.009 19.925C45.6499 20.6445 44.6906 21.7239 44.131 23.1629C35.017 47.4669 30.1403 71.7308 29.5007 95.9549C28.8611 68.453 33.7378 40.9912 44.131 13.5692C44.6906 12.1302 45.6499 11.0508 47.009 10.3313L51.3262 9.85156C52.8452 10.2513 54.0444 11.1308 54.9239 12.4899L103.852 87.3206C104.491 88.28 104.811 89.3592 104.811 90.5584C104.811 91.7576 104.491 92.8369 103.852 93.7962L102.772 95.4753Z" fill="#B1A9A9"/>
<path d="M58.0412 165.031C50.1264 138.088 51.9252 106.989 63.4376 71.7321C63.7574 70.5329 64.3971 69.4935 65.3565 68.614C66.3158 67.7346 67.3152 67.215 68.3545 67.0551C69.3938 66.8153 70.2334 67.0152 70.8729 67.6548L100.013 99.9135L58.0412 165.031ZM226.171 99.9135L255.311 67.6548C255.951 67.0152 256.79 66.8153 257.83 67.0551C258.869 67.215 259.868 67.7346 260.828 68.614C261.787 69.4935 262.427 70.5329 262.746 71.7321C274.259 106.989 276.058 138.088 268.143 165.031L226.171 99.9135Z" fill="#D2D0D0"/>
<path d="M9.71379 236.262L9.59375 231.466C9.59375 189.014 24.5839 152.837 54.5641 122.937C61.3596 116.142 68.4349 110.146 75.7901 104.949L84.3046 99.4325C107.649 85.122 133.912 77.9668 163.093 77.9668C192.353 77.9668 218.656 85.0822 242.001 99.3128L250.395 104.829C257.83 110.105 264.946 116.142 271.741 122.937C301.641 152.837 316.591 189.014 316.591 231.466V236.262C315.472 195.889 300.522 161.312 271.741 132.531C264.706 125.495 257.35 119.3 249.675 113.943C245.198 110.825 240.601 107.987 235.885 105.429L228.329 111.425C210.341 124.296 188.596 130.732 163.093 130.732C137.589 130.732 115.804 124.296 97.7356 111.425L90.3006 105.549C85.5837 108.107 80.9867 110.945 76.5097 114.063C68.8348 119.42 61.5195 125.575 54.5641 132.531C25.7031 161.312 10.7531 195.889 9.71379 236.262Z" fill="#B1A9A9"/>
<path d="M316.591 236.264C315.872 260.568 310.155 282.833 299.442 303.059C296.325 308.976 292.767 314.692 288.77 320.208H288.65L287.69 321.647C285.052 301.5 272.82 287.75 250.995 280.395C271.781 275.518 286.851 262.846 296.205 242.38C305.558 221.753 302.281 198.768 286.371 173.425C270.382 148.082 249.915 141.726 224.972 154.357C199.948 166.909 186.637 195.73 185.038 240.821H141.147C139.548 195.73 126.237 166.909 101.213 154.357C76.2695 141.726 55.8031 148.082 39.8136 173.425C23.9041 198.768 20.6263 221.753 29.9801 242.38C39.334 262.846 54.404 275.518 75.1903 280.395C53.3647 287.75 41.1727 301.5 38.6144 321.647C33.4978 314.852 29.1007 307.817 25.4231 300.541L12.112 260.488V260.008L11.6322 257.37L11.5124 256.77L11.3924 255.571L11.1526 254.252L10.7928 251.254V250.774L10.553 249.335V248.735L10.433 248.256V247.656L10.3132 246.936L10.1932 245.378V244.778L10.0732 244.058L9.71362 236.264C10.7529 195.89 25.703 161.313 54.5639 132.532C61.5194 125.577 68.8346 119.421 76.5095 114.064C80.9866 110.946 85.5835 108.108 90.3004 105.55L97.7355 111.426C115.804 124.297 137.589 130.733 163.092 130.733C188.596 130.733 210.341 124.297 228.329 111.426L235.884 105.43C240.601 107.988 245.198 110.826 249.675 113.944C257.35 119.301 264.706 125.497 271.741 132.532C300.522 161.313 315.472 195.89 316.591 236.264Z" fill="#9F9898"/>
<path d="M287.69 321.648C282.893 327.964 277.537 334.08 271.621 339.996L260.468 350.309L250.395 357.984C224.972 375.972 195.871 384.966 163.092 384.966C130.234 384.966 101.133 376.012 75.7899 358.104C72.4321 355.706 69.1543 353.187 65.9564 350.549L54.4439 339.996C48.5278 334.08 43.2513 327.964 38.6144 321.648C41.1727 301.501 53.3646 287.75 75.1902 280.395C54.4039 275.518 39.3339 262.847 29.9801 242.38C20.6263 221.754 23.9041 198.769 39.8136 173.426C55.803 148.082 76.2695 141.726 101.213 154.358C126.237 166.91 139.548 195.731 141.147 240.821H185.038C186.637 195.731 199.948 166.91 224.972 154.358C249.915 141.726 270.382 148.082 286.371 173.426C302.281 198.769 305.558 221.754 296.205 242.38C286.851 262.847 271.781 275.518 250.994 280.395C272.82 287.75 285.052 301.501 287.69 321.648Z" fill="#D2D0D0"/>
<path d="M173.765 276.916L175.804 279.314L180.721 282.912C182.959 283.951 185.398 284.471 188.036 284.471C192.833 284.471 196.95 282.752 200.388 279.314L203.386 275.357L204.585 274.278L206.264 274.398L217.536 280.274L218.616 281.473L218.496 283.032L214.898 288.549L212.38 291.307C205.584 298.022 197.47 301.38 188.036 301.38C178.602 301.38 170.528 298.022 163.812 291.307L163.092 290.587L162.373 291.307C155.577 298.022 147.463 301.38 138.029 301.38C128.515 301.38 120.44 298.022 113.805 291.307L111.287 288.549L107.689 283.272C107.369 282.712 107.329 282.193 107.569 281.713C107.649 281.153 107.969 280.714 108.528 280.394L119.561 274.278L121.12 274.038L122.439 275.117L125.677 279.314C129.115 282.752 133.232 284.471 138.029 284.471C140.667 284.471 143.146 283.951 145.464 282.912C147.223 282.033 148.862 280.833 150.381 279.314L152.42 276.916C159.855 279.714 166.97 279.714 173.765 276.916Z" fill="#383838"/>
<path d="M132.273 252.932L131.793 247.295V245.137C132.273 241.299 135.311 238.021 140.907 235.303C147.063 232.345 154.458 230.866 163.092 230.866C171.727 230.866 179.122 232.345 185.278 235.303C190.794 238.021 193.832 241.299 194.392 245.137V247.295L193.912 252.932C192.793 249.894 189.915 247.215 185.278 244.897C179.122 241.939 171.727 240.46 163.092 240.46C154.458 240.46 147.063 241.939 140.907 244.897C136.27 247.135 133.392 249.814 132.273 252.932Z" fill="#545454"/>
<path d="M132.272 252.932C133.392 249.814 136.27 247.136 140.907 244.897C147.063 241.939 154.458 240.46 163.092 240.46C171.726 240.46 179.122 241.939 185.277 244.897C189.914 247.215 192.792 249.894 193.912 252.932C192.872 259.247 189.994 264.764 185.277 269.481C181.84 272.919 178.002 275.397 173.765 276.916C166.969 279.714 159.854 279.714 152.419 276.916C148.182 275.397 144.344 272.919 140.907 269.481C136.19 264.764 133.312 259.247 132.272 252.932Z" fill="#464646"/>
<path d="M62.8384 221.873C62.9983 218.115 65.037 214.877 68.9545 212.159C72.9518 209.441 77.8686 208.082 83.7048 208.082C89.3811 208.082 94.2578 209.441 98.3351 212.159C102.253 214.877 104.291 218.115 104.451 221.873V222.593C104.291 226.35 102.253 229.508 98.3351 232.066C94.2578 234.864 89.3811 236.263 83.7048 236.263C77.8686 236.263 72.9518 234.864 68.9545 232.066C65.037 229.508 62.9983 226.35 62.8384 222.593V221.873ZM263.226 221.873V222.593C263.067 226.35 261.068 229.508 257.23 232.066C253.233 234.864 248.316 236.263 242.48 236.263C236.804 236.263 231.887 234.864 227.73 232.066C223.892 229.508 221.894 226.35 221.734 222.593V221.873C221.894 218.115 223.892 214.877 227.73 212.159C231.887 209.441 236.804 208.082 242.48 208.082C248.316 208.082 253.233 209.441 257.23 212.159C261.068 214.877 263.067 218.115 263.226 221.873Z" fill="#5B5B5B"/>
<path d="M263.226 221.873C263.066 218.115 261.068 214.877 257.23 212.159C253.233 209.441 248.316 208.082 242.48 208.082C236.804 208.082 231.887 209.441 227.73 212.159C223.892 214.877 221.894 218.115 221.734 221.873V222.592C221.894 226.35 223.892 229.508 227.73 232.066C231.887 234.864 236.804 236.263 242.48 236.263C248.316 236.263 253.233 234.864 257.23 232.066C261.068 229.508 263.066 226.35 263.226 222.592V221.873ZM62.8384 221.873V222.592C62.9983 226.35 65.037 229.508 68.9545 232.066C72.9518 234.864 77.8686 236.263 83.7048 236.263C89.381 236.263 94.2578 234.864 98.3351 232.066C102.253 229.508 104.291 226.35 104.451 222.592V221.873C104.291 218.115 102.253 214.877 98.3351 212.159C94.2578 209.441 89.381 208.082 83.7048 208.082C77.8686 208.082 72.9518 209.441 68.9545 212.159C65.037 214.877 62.9983 218.115 62.8384 221.873ZM51.5659 221.753C51.5659 213.438 54.4841 206.363 60.3202 200.527C66.1564 194.691 73.2316 191.772 81.5462 191.772C89.7008 191.772 96.7363 194.691 102.652 200.527C108.489 206.363 111.406 213.438 111.406 221.753C111.406 229.987 108.489 236.983 102.652 242.739C96.7363 248.655 89.7008 251.613 81.5462 251.613C73.2316 251.613 66.1564 248.655 60.3202 242.739C54.4841 236.983 51.5659 229.987 51.5659 221.753ZM274.619 221.753C274.619 229.987 271.701 236.983 265.865 242.739C260.028 248.655 252.953 251.613 244.639 251.613C236.484 251.613 229.449 248.655 223.532 242.739C217.696 236.983 214.778 229.987 214.778 221.753C214.778 213.438 217.696 206.363 223.532 200.527C229.449 194.691 236.484 191.772 244.639 191.772C252.953 191.772 260.028 194.691 265.865 200.527C271.701 206.363 274.619 213.438 274.619 221.753Z" fill="white"/>
</svg>
