<svg width="327" height="441" viewBox="0 0 327 441" fill="none" xmlns="http://www.w3.org/2000/svg">
<path d="M42.5719 49.5476C41.5326 20.3669 48.8078 4.29746 64.3975 1.33941C79.5075 -4.09701 98.1752 7.01568 120.401 34.6775L121.12 35.7567C138.229 64.5378 149.142 90.8005 153.859 114.545L163.092 114.305L172.326 114.545C176.963 90.8005 187.916 64.5378 205.185 35.7567L205.904 34.6775C228.05 7.01568 246.677 -4.09701 261.787 1.33941H261.907C277.417 4.29746 284.652 20.3669 283.613 49.5476L283.133 58.3019C280.735 85.9636 279.536 109.188 279.536 127.976L279.656 128.935V130.254L279.536 137.809V156.997L279.176 159.635L278.456 162.033L278.576 162.153C310.315 193.893 326.185 232.307 326.185 277.397V282.194V282.434C324.986 325.366 309.116 362.142 278.576 392.761C261.947 409.31 243.599 421.582 223.533 429.577H223.413C204.865 436.852 184.758 440.49 163.092 440.49C141.507 440.49 121.48 436.852 103.012 429.577C82.7853 421.582 64.3974 409.31 47.8483 392.761C17.1486 362.222 1.2393 325.526 0.120038 282.674L0 277.397C0 232.307 15.9494 193.893 47.8483 162.153L47.009 159.635C46.7691 158.756 46.6491 157.876 46.6491 156.997V137.809L46.5294 130.254L46.6491 128.935V127.976C46.6491 109.188 45.49 85.9636 43.1715 58.3019L42.5719 49.5476Z" fill="#857E7E"/>
<path d="M68.7148 176.904V166.83C68.7148 150.601 67.6753 130.574 65.5967 106.75C63.598 82.9255 67.6355 69.6142 77.7088 66.8161C87.8621 64.0179 100.933 72.5723 116.923 92.4792C131.313 116.703 140.348 138.729 144.025 158.556L140.308 165.631C133.752 176.024 124.318 182.9 112.006 186.257C99.6942 189.535 88.062 188.296 77.1092 182.54L68.7148 176.904ZM257.47 176.904L249.076 182.54C238.123 188.296 226.491 189.535 214.179 186.257C201.867 182.9 192.433 176.024 185.877 165.631C184.358 163.312 183.119 160.954 182.16 158.556C185.837 138.729 194.872 116.703 209.262 92.4792C225.252 72.5723 238.323 64.0179 248.476 66.8161C258.549 69.6142 262.587 82.9255 260.588 106.75C258.51 130.574 257.47 150.601 257.47 166.83V176.904Z" fill="#A8A1A1"/>
<path d="M257.47 176.905V166.831C257.47 150.602 258.51 130.575 260.588 106.751C262.587 82.9265 258.549 69.6153 248.476 66.8171C238.323 64.0189 225.251 72.5733 209.262 92.4802C194.871 116.704 185.837 138.73 182.16 158.557C180.881 155.439 180.041 152.321 179.642 149.203L179.402 146.445C180.441 118.543 191.753 86.4842 213.339 50.268C232.047 26.9234 247.357 16.89 259.269 20.1679C268.303 22.6462 273.22 32.3199 274.019 49.1887L273.54 57.4633C271.141 85.4448 269.942 108.949 269.942 127.977L270.062 130.015L269.942 137.571V156.998C267.704 165.072 263.546 171.708 257.47 176.905ZM52.1655 49.1887C52.965 32.3199 57.8818 22.6462 66.9159 20.1679C78.828 16.89 94.138 26.9234 112.846 50.268C134.431 86.4842 145.744 118.543 146.783 146.445L146.543 149.203C146.144 152.321 145.304 155.439 144.025 158.557C140.348 138.73 131.313 116.704 116.923 92.4802C100.933 72.5733 87.8621 64.0189 77.7087 66.8171C67.6354 69.6153 63.5979 82.9265 65.5966 106.751C67.6752 130.575 68.7147 150.602 68.7147 166.831V176.905C62.6387 171.708 58.4812 165.072 56.2427 156.998V137.571L56.123 130.015L56.2427 127.977C56.2427 108.949 55.0435 85.4448 52.6451 57.4633L52.1655 49.1887Z" fill="#BDB6B6"/>
<path d="M52.1656 49.1887C51.3662 26.4037 56.283 13.5322 66.916 10.5741C78.8281 7.29628 94.1381 17.3297 112.846 40.6743C136.99 81.1276 148.302 116.384 146.783 146.445C145.744 118.543 134.432 86.4841 112.846 50.268C94.1381 26.9233 78.8281 16.89 66.916 20.1678C57.8819 22.6462 52.9651 32.3198 52.1656 49.1887ZM179.402 146.445C177.883 116.384 189.195 81.1276 213.339 40.6743C232.047 17.3297 247.357 7.29628 259.269 10.5741C269.902 13.5322 274.819 26.4037 274.019 49.1887C273.22 32.3198 268.303 22.6462 259.269 20.1678C247.357 16.89 232.047 26.9233 213.339 50.268C191.754 86.4841 180.441 118.543 179.402 146.445Z" fill="#CBC3C3"/>
<path d="M9.71379 282.194L9.59375 277.397C9.59375 234.945 24.5839 198.769 54.5641 168.869C66.3963 157.037 79.1879 147.563 92.9388 140.448C114.045 129.415 137.429 123.898 163.093 123.898C188.756 123.898 212.18 129.375 233.366 140.328C247.117 147.523 259.909 157.037 271.741 168.869C301.641 198.769 316.591 234.945 316.591 277.397V282.194C315.472 241.821 300.522 207.243 271.741 178.462C258.31 165.031 243.639 154.598 227.73 147.163L218.136 155.318C202.946 166.35 184.598 171.867 163.093 171.867C141.587 171.867 123.199 166.35 107.929 155.318C104.331 152.759 101.213 150.081 98.575 147.283C82.6655 154.638 67.9953 165.031 54.5641 178.462C25.7031 207.243 10.7531 241.821 9.71379 282.194Z" fill="#DBD9D9"/>
<path d="M9.71362 282.194C10.7529 241.821 25.703 207.243 54.5639 178.462C67.9951 165.031 82.6654 154.638 98.5749 147.283C101.213 150.081 104.331 152.759 107.929 155.318C123.199 166.35 141.587 171.867 163.092 171.867C184.598 171.867 202.946 166.35 218.136 155.318L227.73 147.163C243.639 154.598 258.31 165.031 271.741 178.462C300.522 207.243 315.472 241.821 316.591 282.194C315.472 322.567 300.522 357.145 271.741 385.926C256.151 401.515 238.882 413.068 219.935 420.583C203.626 388.684 184.678 372.734 163.092 372.734C141.667 372.734 122.799 388.684 106.49 420.583C87.4623 413.068 70.1537 401.515 54.5639 385.926C25.703 357.145 10.7529 322.567 9.71362 282.194Z" fill="#D2D0D0"/>
<path d="M219.935 420.583C202.426 427.458 183.479 430.896 163.092 430.896C142.786 430.896 123.918 427.458 106.49 420.583C122.799 388.684 141.666 372.734 163.092 372.734C184.678 372.734 203.625 388.684 219.935 420.583Z" fill="#E5E3E3"/>
<path d="M246.437 242.022C246.437 236.745 244.639 232.388 241.041 228.95C237.443 225.513 233.126 223.794 228.089 223.794C223.133 223.794 218.776 225.513 215.018 228.95C211.421 232.388 209.622 236.745 209.622 242.022C209.622 247.059 211.421 251.296 215.018 254.733C218.776 258.411 223.133 260.25 228.089 260.25C233.126 260.25 237.443 258.411 241.041 254.733C244.639 251.296 246.437 247.059 246.437 242.022ZM65.7166 241.422C65.7166 233.348 68.5946 226.472 74.3508 220.796C80.107 215.2 86.9824 212.401 94.9771 212.401C102.972 212.401 109.927 215.2 115.844 220.796C121.44 226.472 124.238 233.348 124.238 241.422C124.238 249.497 121.44 256.292 115.844 261.809C109.927 267.645 102.972 270.563 94.9771 270.563C86.9824 270.563 80.107 267.645 74.3508 261.809C68.5946 256.292 65.7166 249.497 65.7166 241.422ZM79.987 242.022C79.987 247.059 81.7858 251.296 85.3835 254.733C88.8212 258.411 93.0983 260.25 98.215 260.25C103.252 260.25 107.569 258.411 111.166 254.733C114.764 251.296 116.563 247.059 116.563 242.022C116.563 236.745 114.764 232.388 111.166 228.95C107.569 225.513 103.252 223.794 98.215 223.794C93.0983 223.794 88.8212 225.513 85.3835 228.95C81.7858 232.388 79.987 236.745 79.987 242.022ZM260.468 241.422C260.468 249.497 257.67 256.292 252.074 261.809C246.317 267.645 239.362 270.563 231.207 270.563C223.213 270.563 216.377 267.645 210.701 261.809C204.945 256.292 202.067 249.497 202.067 241.422C202.067 233.348 204.945 226.472 210.701 220.796C216.377 215.2 223.213 212.401 231.207 212.401C239.362 212.401 246.317 215.2 252.074 220.796C257.67 226.472 260.468 233.348 260.468 241.422Z" fill="white"/>
<path d="M79.9875 242.022C79.9875 236.745 81.7864 232.388 85.384 228.951C88.8217 225.513 93.0988 223.794 98.2155 223.794C103.252 223.794 107.569 225.513 111.167 228.951C114.765 232.388 116.563 236.745 116.563 242.022C116.563 247.059 114.765 251.296 111.167 254.734C107.569 258.411 103.252 260.25 98.2155 260.25C93.0988 260.25 88.8217 258.411 85.384 254.734C81.7864 251.296 79.9875 247.059 79.9875 242.022ZM246.438 242.022C246.438 247.059 244.639 251.296 241.041 254.734C237.444 258.411 233.127 260.25 228.09 260.25C223.133 260.25 218.776 258.411 215.019 254.734C211.421 251.296 209.622 247.059 209.622 242.022C209.622 236.745 211.421 232.388 215.019 228.951C218.776 225.513 223.133 223.794 228.09 223.794C233.127 223.794 237.444 225.513 241.041 228.951C244.639 232.388 246.438 236.745 246.438 242.022Z" fill="#5B5B5B"/>
<path d="M146.663 347.311C141.387 349.789 135.63 351.028 129.394 351.028C118.282 351.028 108.768 347.071 100.853 339.156C93.0186 331.321 89.1011 321.847 89.1011 310.735C89.1011 299.542 93.0186 290.028 100.853 282.193C108.768 274.279 118.282 270.321 129.394 270.321H197.749C208.462 270.561 217.616 274.519 225.211 282.193C233.126 290.028 237.083 299.542 237.083 310.735C237.083 321.847 233.126 331.321 225.211 339.156C217.377 347.071 207.863 351.028 196.67 351.028C190.434 351.028 184.718 349.789 179.521 347.311C175.444 345.392 171.647 342.674 168.129 339.156L163.092 333.16L157.936 339.156C154.498 342.674 150.74 345.392 146.663 347.311Z" fill="white"/>
<path d="M146.663 347.311C150.74 345.392 154.498 342.674 157.936 339.156L163.092 333.16L168.129 339.156C171.646 342.674 175.444 345.392 179.521 347.311C174.565 349.789 169.088 351.028 163.092 351.028C157.096 351.028 151.62 349.789 146.663 347.311Z" fill="#A8A1A1"/>
<path d="M134.551 268.524L134.312 264.686V262.528C134.711 258.93 137.589 255.812 142.946 253.174C148.862 250.376 155.977 248.977 164.292 248.977C172.526 248.977 179.562 250.376 185.398 253.174C190.754 255.812 193.672 258.93 194.152 262.528L194.272 264.686L194.032 268.883C193.233 265.606 190.355 262.767 185.398 260.369C179.562 257.571 172.526 256.172 164.292 256.172C155.977 256.172 148.862 257.571 142.946 260.369C138.149 262.688 135.351 265.406 134.551 268.524Z" fill="#FFC4FF"/>
<path d="M134.552 268.524C135.351 265.406 138.149 262.688 142.946 260.369C148.862 257.571 155.977 256.172 164.292 256.172C172.527 256.172 179.562 257.571 185.398 260.369C190.355 262.768 193.233 265.606 194.032 268.884C193.153 275.359 190.275 280.956 185.398 285.672C179.562 291.589 172.527 294.547 164.292 294.547C155.977 294.547 148.862 291.589 142.946 285.672C138.149 280.876 135.351 275.159 134.552 268.524Z" fill="#FFAAFF"/>
<path d="M68.4752 282.914C68.5552 282.354 68.755 281.955 69.0748 281.715L70.274 280.995C83.945 278.357 98.6153 281.315 114.285 289.869L115.364 291.069V292.508L114.645 293.827L113.205 294.307C99.2947 293.587 84.5846 294.426 69.0748 296.825L67.8756 296.585L66.7961 295.506V294.067L68.4752 282.914ZM76.9894 312.055V310.976L77.7091 310.016C86.5832 303.54 98.0957 300.702 112.246 301.502L113.446 301.981L113.925 303.061V304.26L112.966 305.099C101.373 308.297 91.1002 313.854 82.1461 321.768L81.0669 322.008L79.9874 321.649L79.5079 320.689L76.9894 312.055ZM249.196 312.055L246.678 320.689L246.198 321.649L245.119 322.008L244.039 321.768C235.085 313.854 224.812 308.297 213.22 305.099L212.26 304.26V303.061L212.74 301.981L213.939 301.502C228.09 300.702 239.602 303.54 248.476 310.016L249.196 310.976V312.055ZM257.71 282.914L259.389 294.067V295.506L258.31 296.585L257.111 296.825C241.601 294.426 226.891 293.587 212.98 294.307L211.541 293.827C211.061 293.427 210.821 292.987 210.821 292.508V291.069C211.061 290.589 211.421 290.189 211.9 289.869C227.57 281.315 242.24 278.357 255.911 280.995L257.111 281.715L257.71 282.914Z" fill="#A8A1A1"/>
</svg>
